<?xml version="1.0" standalone="no"?>
<!DOCTYPE svg PUBLIC "-//W3C//DTD SVG 1.1//EN" "http://www.w3.org/Graphics/SVG/1.1/DTD/svg11.dtd" >
<svg xmlns="http://www.w3.org/2000/svg">
<metadata></metadata>
<defs>
<font id="zwodrei_-_freebold" horiz-adv-x="1228" >
<font-face units-per-em="2048" ascent="1638" descent="-410" />
<missing-glyph horiz-adv-x="532" />
<glyph horiz-adv-x="0" />
<glyph unicode="&#xd;" horiz-adv-x="532" />
<glyph horiz-adv-x="0" />
<glyph horiz-adv-x="0" />
<glyph unicode=" "  horiz-adv-x="532" />
<glyph unicode="&#x09;" horiz-adv-x="532" />
<glyph unicode="&#xa0;" horiz-adv-x="532" />
<glyph unicode="!" horiz-adv-x="612" d="M125 1454h350l-20 -1003h-312zM145 0v334h310v-334h-310z" />
<glyph unicode="&#x22;" horiz-adv-x="878" d="M88 860v596h297v-596h-297zM469 860v596h299v-596h-299z" />
<glyph unicode="#" horiz-adv-x="1503" d="M106 403q0 14 1.5 63.5t1.5 63.5v125h237q1 18 7 83.5t9 109.5h-219v254h242l25 297h284l-28 -297h194l27 297h287l-29 -297h203v-254h-224q-2 -25 -7.5 -86.5t-8.5 -106.5h205v-252h-223l-7 -51l-22 -293h-287l29 344h-191l-12 -139q-7 -70 -14 -205h-289l29 344h-220z M629 655h196q2 28 8 89t9 104h-197q-3 -35 -8 -93.5t-8 -99.5z" />
<glyph unicode="$" horiz-adv-x="1144" d="M70 70q9 16 57.5 102.5t77.5 138.5q48 -17 130 -30t146 -13q55 0 96 6t78.5 21t57.5 46.5t20 78.5q0 71 -36.5 110.5t-100.5 63.5l-147 65q-70 28 -117 55.5t-92 71t-67.5 106t-22.5 144.5q0 180 93.5 289t258.5 127v211h217v-205q164 -9 307 -88l-117 -231 q-139 57 -270 57q-77 0 -123.5 -31.5t-46.5 -99.5q0 -33 13.5 -60t32.5 -44t50 -33t55 -24t60 -19.5t53 -18.5q76 -27 131.5 -60t102 -83t70.5 -122t24 -165q0 -179 -87 -280.5t-255 -145.5v-231h-217v207q-227 4 -432 84z" />
<glyph unicode="%" horiz-adv-x="1951" d="M66 1016q0 144 58.5 247t162.5 154q75 37 178 37q191 0 297 -120.5t106 -317.5q0 -143 -59.5 -247t-163.5 -155q-73 -36 -180 -36q-190 0 -294.5 120.5t-104.5 317.5zM330 2l975 1432h299l-953 -1436zM350 1016q0 -209 115 -209q117 0 117 209q0 89 -27 148t-90 59 q-115 0 -115 -207zM1079 414q0 145 58.5 248.5t162.5 155.5q78 38 179 38q191 0 296 -122t105 -320q0 -145 -58.5 -247t-162.5 -153q-75 -37 -180 -37q-189 0 -294.5 120.5t-105.5 316.5zM1364 414q0 -56 9 -99t36 -74.5t70 -31.5q114 0 114 205q0 209 -114 209 q-115 0 -115 -209z" />
<glyph unicode="&#x26;" horiz-adv-x="1333" d="M104 389q0 61 16 114t38 90.5t61 76t68.5 61t77.5 55.5q-2 3 -26 33t-29 37.5t-25 35t-26 40.5t-19.5 39.5t-18.5 46t-9.5 45t-4.5 51.5q0 155 125 261t291 106q167 0 277 -94t110 -250q0 -112 -62 -209q-55 -79 -172 -178l148 -172q32 94 43 229l247 -166 q-25 -179 -88 -295l131 -158q0 -2 -28 -34q-18 -21 -154 -183l-119 140q-157 -127 -374 -127q-215 0 -346.5 106t-131.5 299zM434 420q0 -70 45.5 -113t116.5 -43q96 0 166 70l-221 260q-107 -80 -107 -174zM508 1122q0 -11 2 -21.5t4.5 -17.5t8.5 -18.5t8.5 -15.5t11 -16.5 t10.5 -15.5q21 -32 51 -67q101 114 101 170q0 96 -97 101q-45 2 -72.5 -26t-27.5 -73z" />
<glyph unicode="'" horiz-adv-x="458" d="M80 860v596h299v-596h-299z" />
<glyph unicode="(" horiz-adv-x="731" d="M84 621q0 553 238 946h329q-147 -245 -213 -618q-26 -144 -26 -328q0 -278 64 -521.5t175 -427.5h-329q-238 393 -238 949z" />
<glyph unicode=")" horiz-adv-x="731" d="M66 -328q239 427 239 949q0 521 -239 946h327q240 -380 240 -946q0 -569 -240 -949h-327z" />
<glyph unicode="*" horiz-adv-x="1005" d="M57 1061l56 170l270 -37l51 260h166l41 -260l260 37l51 -170l-223 -131l117 -234l-146 -104q-19 19 -50.5 48.5t-41.5 39.5l-94 90q-28 -28 -59 -56.5t-70 -63.5t-63 -58l-132 104q14 34 46 113t49 121z" />
<glyph unicode="+" horiz-adv-x="1210" d="M152 575v283h309v346h282v-346h308v-283h-308v-348h-282v348h-309z" />
<glyph unicode="," horiz-adv-x="579" d="M66 -117l118 445h318l-197 -445h-239z" />
<glyph unicode="-" horiz-adv-x="739" d="M98 418v287h547v-287h-547z" />
<glyph unicode="." horiz-adv-x="569" d="M123 0v334h334v-334h-334z" />
<glyph unicode="/" horiz-adv-x="837" d="M2 0l490 1454h327l-493 -1454h-324z" />
<glyph unicode="0" horiz-adv-x="1292" d="M80 717q0 719 559 719q561 0 561 -719q0 -129 -18 -236.5t-60 -200.5t-105.5 -157t-159.5 -100.5t-218 -36.5t-217.5 36.5t-159 100.5t-105 157t-59.5 200.5t-18 236.5zM428 717q0 -447 211 -447q105 0 159 110t54 337t-54 326q-55 100 -157 100q-104 0 -159 -100 q-54 -99 -54 -326z" />
<glyph unicode="1" horiz-adv-x="1024" d="M51 1169l615 267h69v-1153h203v-283h-739v283h204v718l-223 -86z" />
<glyph unicode="2" horiz-adv-x="1110" d="M49 70q47 66 152.5 212t176 248t135.5 205q2 3 14.5 23l15 24t13 21t13.5 23.5t11 21t11.5 23t8.5 21t9 24.5q9 30 9 57q0 84 -58.5 125t-156.5 41q-116 0 -223 -56l-90 273q97 40 177.5 59t187.5 19q166 0 287 -65.5t178 -182.5q38 -77 38 -185q0 -122 -37.5 -211.5 t-110.5 -195.5q-52 -75 -110 -154l-114 -151h407l-35 -289h-886z" />
<glyph unicode="3" horiz-adv-x="1140" d="M37 45l82 274q64 -20 100 -30t92.5 -18.5t114.5 -8.5q128 0 206.5 58t78.5 174q0 61 -37 101t-95.5 54t-123.5 13t-127 -17l-37 55l248 441h-416v282h858l35 -53l-307 -493q143 -11 232 -112t89 -253q0 -258 -161 -396.5t-431 -138.5q-112 0 -197.5 16.5t-203.5 51.5z " />
<glyph unicode="4" horiz-adv-x="1275" d="M72 328l561 1120l287 -109l-392 -782h222v313h317v-313h141v-283h-141v-276h-317v276h-648z" />
<glyph unicode="5" horiz-adv-x="1177" d="M104 43l78 279q58 -18 91 -27.5t85 -18t101 -8.5q130 0 208 47.5t78 153.5q0 101 -64 144.5t-187 43.5q-120 0 -228 -51q-4 2 -13 7t-16.5 7.5t-15.5 2.5l35 802h743v-282h-448l-19 -230l101 7q208 0 323 -112.5t115 -320.5q0 -256 -162 -381.5t-446 -125.5 q-164 0 -359 63z" />
<glyph unicode="6" d="M102 569q0 295 119.5 492.5t338.5 296.5q157 70 364 82l8 -277q-175 -12 -294 -89t-171 -208q98 78 238 78q152 0 255.5 -71t152.5 -192q36 -89 36 -210q0 -177 -90 -296t-237 -167q-96 -31 -193 -31q-267 0 -397 151.5t-130 440.5zM440 475q0 -104 46 -165.5t137 -61.5 t140.5 58t49.5 159q0 215 -182 215q-94 0 -142.5 -52.5t-48.5 -152.5z" />
<glyph unicode="7" horiz-adv-x="1087" d="M37 1141v284h993q6 -8 15 -23.5t14 -23.5l-586 -1421l-287 125l449 1059h-598z" />
<glyph unicode="8" horiz-adv-x="1193" d="M82 385q0 127 57.5 219t151.5 148q-64 52 -105 130t-41 173q0 136 77 225.5t200 128.5q84 27 180 27q151 0 260.5 -60t161.5 -165q35 -72 35 -156q0 -176 -160 -303q221 -126 221 -367q0 -106 -40 -186t-111.5 -127.5t-163.5 -71t-203 -23.5q-88 0 -164.5 14.5t-142.5 46 t-113 78.5t-73.5 115.5t-26.5 153.5zM406 410q0 -83 52.5 -123.5t143.5 -40.5q195 0 195 164q0 43 -16 78t-46.5 59t-61.5 39.5t-73 29.5q-42 -14 -72.5 -29.5t-60.5 -39.5t-45.5 -58.5t-15.5 -78.5zM446 1042q0 -129 156 -184q158 60 158 184q0 65 -43 100.5t-115 35.5 t-114 -35.5t-42 -100.5z" />
<glyph unicode="9" horiz-adv-x="1210" d="M88 944q0 228 140.5 359t371.5 131q269 0 395.5 -143t126.5 -431q0 -297 -117.5 -496.5t-335.5 -297.5q-156 -70 -364 -80l-8 278q170 8 289.5 87.5t171.5 209.5q-98 -72 -234 -72q-209 0 -322.5 120t-113.5 335zM416 952q0 -99 44 -148.5t138 -49.5q96 0 143 45t47 143 q0 104 -45.5 162.5t-136.5 58.5q-93 0 -141.5 -54.5t-48.5 -156.5z" />
<glyph unicode=":" horiz-adv-x="581" d="M123 0v334h334v-334h-334zM123 707v333h334v-333h-334z" />
<glyph unicode=";" horiz-adv-x="604" d="M66 -117l118 445h318l-197 -445h-239zM162 707v333h334v-333h-334z" />
<glyph unicode="&#x3c;" d="M178 526v324l856 336q0 -44 1 -138t1 -161l-549 -197l549 -188v-38q0 -22 -1 -69t-1 -76v-131z" />
<glyph unicode="=" horiz-adv-x="1210" d="M168 362v283h870v-283h-870zM168 766v283h870v-283h-870z" />
<glyph unicode="&#x3e;" d="M168 489l551 197q-58 20 -255.5 86t-295.5 100v37q0 22 1 69t1 77v131l858 -338v-324l-858 -336q0 44 -1 139t-1 162z" />
<glyph unicode="?" horiz-adv-x="1021" d="M70 1380q85 26 122 36.5t109.5 23t142.5 12.5q234 0 366 -106.5t132 -317.5q0 -268 -309 -399v-187h-301v381q186 34 252 118q26 33 26 81q0 74 -55 110.5t-143 36.5q-55 0 -102 -7.5t-73 -15.5t-87 -28zM332 0v328h309v-328h-309z" />
<glyph unicode="@" horiz-adv-x="2041" d="M84 451q0 205 71.5 382t192.5 309q142 157 351.5 246t482.5 89q253 0 430.5 -100.5t261.5 -282.5q53 -116 55.5 -279t-43.5 -290q-64 -179 -199 -295t-333 -132q-136 5 -219 70q-74 -36 -136.5 -53t-150.5 -17q-155 0 -240.5 93t-85.5 255q0 209 98 359.5t258 222.5 q106 47 224 47q188 0 362 -63l-127 -666q17 -4 39 -4q46 0 85 18t66.5 46.5t50 68t36.5 78t24 81.5q19 84 19 157q0 219 -133 329.5t-369 110.5q-275 0 -462 -131t-271 -350q-53 -141 -53 -291q0 -244 134.5 -375t377.5 -131q188 0 323 31q4 0 4 -108v-107 q-172 -64 -358 -64q-260 0 -439.5 110t-265.5 305q-61 140 -61 331zM827 492q0 -144 117 -144q53 0 111 27l75 440q-13 4 -25 4h-28q-80 0 -138 -47.5t-85 -120.5t-27 -159z" />
<glyph unicode="A" horiz-adv-x="1349" d="M35 0l385 1208h-146l134 254h450l459 -1462h-352l-82 293l-80 -6h-285l-69 6l-84 -293h-330zM524 571h279l-135 488z" />
<glyph unicode="B" horiz-adv-x="1234" d="M125 2v1456q145 25 383 25q122 0 216 -19t170.5 -62t117.5 -121.5t41 -190.5q0 -93 -38 -174t-95 -128q105 -45 167 -136.5t62 -227.5q0 -103 -31 -181t-84 -128t-132 -81.5t-167.5 -44t-197.5 -12.5q-192 0 -412 25zM461 262q40 -6 110 -6q109 0 174.5 44.5t65.5 141.5 q0 43 -12.5 75t-34 52t-54 32.5t-69 17t-82.5 4.5h-98v-361zM461 887l65 -2q11 -1 21 -1q190 0 190 175q0 164 -202 164h-37q-18 0 -37 -4v-332z" />
<glyph unicode="C" horiz-adv-x="1181" d="M76 725q0 259 103 438t290 261q129 57 295 57q168 0 326 -70l-84 -272q-103 47 -211 47q-365 0 -365 -461q0 -225 91 -339t294 -114q117 0 215 37l84 -274q-80 -33 -155.5 -45.5t-184.5 -12.5q-258 0 -422 118.5t-232 328.5q-44 138 -44 301z" />
<glyph unicode="D" horiz-adv-x="1439" d="M139 2v1450q208 27 400 27q786 0 786 -762q0 -384 -204 -562t-607 -178q-180 0 -375 25zM475 276q49 -5 94 -5q185 -1 283 87q121 108 121 365q0 459 -391 459h-51q-31 0 -56 -4v-902z" />
<glyph unicode="E" horiz-adv-x="1083" d="M133 0v1464h862q-15 -59 -43.5 -157t-38.5 -133h-450q0 -4 2 -24t2 -24v-215h414v-293h-414v-280l-4 -47h541v-291h-871z" />
<glyph unicode="F" horiz-adv-x="1042" d="M133 0v1462h862q-30 -108 -73 -243q-15 -45 -17 -45h-442l4 -46v-251h414v-293h-414v-584h-334z" />
<glyph unicode="G" horiz-adv-x="1304" d="M78 723q0 259 103 439.5t290 261.5q129 57 295 57q116 0 200.5 -17t184.5 -57l-139 -256q-82 35 -213 35q-369 0 -369 -463q0 -223 87 -337t284 -114q41 0 88 9v243h-215l135 262h397v-741q-198 -68 -420 -68q-345 0 -526.5 196.5t-181.5 549.5z" />
<glyph unicode="H" horiz-adv-x="1380" d="M137 0v1464h336v-553h436v553h336v-1464h-336v625q-4 -1 -11.5 -2.5t-10.5 -1.5l-25 -5h-344l-45 9v-625h-336z" />
<glyph unicode="I" horiz-adv-x="593" d="M129 0v1464h334v-1464h-334z" />
<glyph unicode="J" horiz-adv-x="831" d="M37 4q7 45 16.5 144.5t16.5 144.5q92 -19 139 -19q91 0 132.5 38.5t41.5 129.5v729q-48 0 -168 1.5t-166 1.5l154 288h514v-1059q0 -215 -124 -320.5t-351 -105.5q-103 0 -205 27z" />
<glyph unicode="K" horiz-adv-x="1284" d="M-10 1208l133 256h354v-1466h-332v1210h-155zM483 743l385 719h371l-387 -704l434 -758h-373z" />
<glyph unicode="L" horiz-adv-x="1093" d="M133 0v1464h326v-1169h235l51 -6v139l277 129v-557h-889z" />
<glyph unicode="M" horiz-adv-x="1703" d="M137 0l56 1462h350l311 -762l24 57q105 250 265 649l22 56h328l72 -1462h-338l-15 854l-239 -557h-248l-248 557l-22 -854h-318z" />
<glyph unicode="N" horiz-adv-x="1462" d="M0 1208l133 256h336l485 -802l13 -35v837h319v-1464h-272l-492 809l-10 31v-840h-317v1208h-195z" />
<glyph unicode="O" horiz-adv-x="1402" d="M78 733q0 171 35 305.5t108 235.5t194 155t285 54t285 -54t193.5 -154.5t107.5 -235t35 -306.5q0 -534 -335 -698q-121 -58 -286 -58q-163 0 -284 55t-194.5 157t-108.5 237.5t-35 306.5zM432 733q0 -83 6 -147.5t23.5 -127.5t46.5 -103.5t77.5 -65.5t114.5 -25 q65 0 113.5 25t77.5 66t46.5 103.5t23.5 127t6 147.5q0 84 -5.5 147t-22.5 124t-46 100t-77 62.5t-114 23.5q-67 0 -116 -23.5t-78 -62.5t-46.5 -99.5t-23.5 -124t-6 -147.5z" />
<glyph unicode="P" horiz-adv-x="1202" d="M135 0v1460q207 19 397 19q283 0 438.5 -127.5t155.5 -395.5q0 -266 -154.5 -393t-434.5 -127q-30 0 -68 4v-440h-334zM461 725q33 -4 64 -4q99 1 167 45q90 58 90 186q0 116 -63 178t-178 62h-29q-18 0 -43 -4v-418z" />
<glyph unicode="Q" horiz-adv-x="1435" d="M80 725q0 136 21.5 250t69 208.5t119.5 160t176.5 101.5t235.5 36t235.5 -36t176.5 -101.5t120 -160t69.5 -208.5t21.5 -250q0 -315 -108 -483l-29 -6l233 -201q-93 -44 -272 -135l-156 133q-135 -56 -291 -56q-163 0 -284 54t-194 154.5t-108.5 235t-35.5 304.5z M434 725q0 -83 6 -147t23.5 -125.5t46.5 -101t77.5 -63.5t114.5 -24q65 0 113.5 24t78 64t47 101t24 125.5t6.5 146.5q0 85 -5.5 148t-22.5 125t-45.5 101t-77 63t-115.5 24t-116 -24t-78.5 -63.5t-47 -100.5t-23.5 -125t-6 -148z" />
<glyph unicode="R" horiz-adv-x="1251" d="M137 0v1452q213 27 355 27q422 0 566 -240q54 -90 54 -229q0 -140 -64 -242.5t-167 -163.5l27 -45q59 -96 333 -557h-375l-387 674v-676h-342zM479 688l72 33q37 17 61 29.5t57.5 36t52.5 47.5t33.5 60t14.5 77q0 221 -242 221h-23q-10 0 -26 -2v-502z" />
<glyph unicode="S" horiz-adv-x="1132" d="M59 57l70 287q71 -19 108 -28t101 -19t121 -10q115 0 172.5 29.5t68.5 113.5q1 8 1 16q0 94 -111 136q-22 8 -65 24q-85 31 -128.5 48.5t-111 56.5t-101 80t-60 107.5t-26.5 150.5q0 215 139 325.5t371 110.5q117 0 204.5 -19.5t223.5 -66.5l-139 -250q-134 63 -281 63 q-79 0 -125.5 -34t-46.5 -105q0 -32 11 -55.5t34 -39.5t42 -25t50 -21q7 -3 11 -4l121 -47q68 -27 113 -49.5t93 -59t76 -79t46 -106.5t18 -145q0 -117 -43.5 -207.5t-121.5 -146t-180.5 -83.5t-226.5 -28q-225 0 -428 80z" />
<glyph unicode="T" horiz-adv-x="1122" d="M37 1174v290h1055q-56 -169 -95 -290h-274l6 -58v-1116h-342v1174h-350z" />
<glyph unicode="U" horiz-adv-x="1359" d="M117 621v843h336v-782q0 -45 0.5 -72.5t2.5 -67.5t6 -65t12 -56.5t19 -51t27.5 -40t38.5 -31.5t51 -18.5t64 -7.5q36 0 65 7t50.5 18.5t38.5 32t28.5 39.5t19 50.5t12 56.5t6.5 64.5t2.5 68t0.5 73.5v782h336v-843q0 -161 -28.5 -277.5t-93 -200.5t-173 -125t-264.5 -41 q-155 0 -263 41.5t-172.5 125.5t-93 200t-28.5 277z" />
<glyph unicode="V" horiz-adv-x="1294" d="M-4 1464h358l285 -1003l12 -58l4 29q0 5 3.5 14t3.5 13l288 1005h346l-473 -1464h-358z" />
<glyph unicode="W" horiz-adv-x="1857" d="M16 1462h357l184 -913l227 913h308l225 -934l199 934h325l-14 -62q-98 -424 -323 -1338l-15 -62h-348l-215 883l-230 -883h-327z" />
<glyph unicode="X" horiz-adv-x="1267" d="M0 0l453 776q-43 71 -132 214t-158.5 256.5t-129.5 215.5h375l221 -360l215 360h375l-412 -692l448 -770h-352l-264 457l-19 -35q-133 -238 -222 -389l-19 -33h-379z" />
<glyph unicode="Y" horiz-adv-x="1253" d="M0 1464h369l264 -602q48 110 128 295t123 282l11 25h358l-458 -938v-528h-336v530l-20 39q-57 113 -439 897z" />
<glyph unicode="Z" horiz-adv-x="1144" d="M94 1137v327h967v-243l-578 -930h582v-291h-967v246l576 928h-320v-179z" />
<glyph unicode="[" horiz-adv-x="704" d="M82 -330v1897h512v-269h-195v-1359h195v-269h-512z" />
<glyph unicode="\" horiz-adv-x="825" d="M6 1438h328l491 -1438h-325z" />
<glyph unicode="]" horiz-adv-x="704" d="M94 -61h197v1359h-197v269h512v-1897h-512v269z" />
<glyph unicode="^" horiz-adv-x="1099" d="M74 709l332 729h294q36 -87 79.5 -186.5t75 -169t86.5 -189.5t83 -182h-152h-149l-178 411l-166 -411l-48 -1q-32 -1 -106 -1h-151z" />
<glyph unicode="_" horiz-adv-x="1007" d="M2 43h1006v-240h-1006v240z" />
<glyph unicode="`" horiz-adv-x="763" d="M39 1436h422l248 -267h-324z" />
<glyph unicode="a" horiz-adv-x="1009" d="M57 346q0 93 36.5 162t102.5 108.5t147.5 58.5t180.5 19q35 0 107 -4q-1 32 -11.5 55t-26.5 37t-42.5 22t-53 10.5t-63.5 2.5q-97 0 -241 -45l-33 113q-28 104 -33 133q190 65 358 65q455 0 455 -434v-600q-230 -65 -410 -65q-109 0 -192 18t-148 59t-99 112.5t-34 172.5 zM356 356q0 -66 49.5 -90t133.5 -24q43 0 92 10v217q-28 6 -82 6q-193 0 -193 -119z" />
<glyph unicode="b" horiz-adv-x="1169" d="M-2 1186l131 250l332 2v-355l-10 -43q0 2 41 14q37 11 112 11q242 0 365 -141.5t123 -397.5q0 -258 -126 -398t-378 -140h-54q-182 0 -366 41v1157h-170zM461 270q41 -8 98 -8q240 0 240 264q0 130 -57 206.5t-173 76.5q-53 0 -108 -12v-527z" />
<glyph unicode="c" horiz-adv-x="964" d="M68 526q0 259 134 404t384 145q142 0 299 -74l-135 -221q-67 31 -164 31q-110 0 -164.5 -76t-54.5 -209q0 -130 52 -195t167 -75q20 -2 39 -2q112 0 198 65l131 -204q-162 -129 -368 -129q-254 0 -386 139.5t-132 400.5z" />
<glyph unicode="d" horiz-adv-x="1120" d="M78 526q0 256 122.5 397.5t364.5 141.5q104 0 156 -31v121l6 27h-184l137 254h321v-1407q-185 -41 -368 -41h-55q-248 0 -374 141t-126 397zM375 526q0 -264 235 -264q68 0 111 8v525q-10 1 -34.5 5.5t-44 6.5t-40.5 2q-113 0 -170 -75t-57 -208z" />
<glyph unicode="e" horiz-adv-x="1077" d="M68 532q0 263 116.5 406t358.5 143q123 0 211 -37.5t140.5 -110.5t76.5 -172t24 -229v-31q0 -24 -4 -65h-573l-43 6q3 -100 39 -142.5t129 -47.5q12 -1 23 -1q59 1 94 23q42 26 79 88l236 -77q-68 -143 -168.5 -219t-263.5 -76q-247 0 -361 138t-114 404zM381 668 q17 4 37 4h237l31 -4q-8 151 -143 151q-79 0 -116 -37.5t-46 -113.5z" />
<glyph unicode="f" horiz-adv-x="811" d="M37 813v258h160v35q10 175 120.5 274t292.5 99q67 0 110.5 -8t110.5 -29l-20 -35q-13 -23 -44.5 -76t-45.5 -76l-21 -34h-51q-143 0 -143 -115v-35h266l-139 -258h-135l8 -57v-756h-309v813h-160z" />
<glyph unicode="g" horiz-adv-x="1155" d="M70 -254l139 186q89 -66 169.5 -102.5t190.5 -50.5q18 -1 34 -1q147 0 147 99q0 18 -5.5 33t-13.5 24.5t-23 17t-27.5 11.5t-33.5 7.5t-35.5 4.5t-39.5 3t-38 3q-55 5 -96 12.5t-85 22.5t-72 37t-46 58t-18 84q0 51 17.5 85.5t54.5 77.5q-88 53 -141.5 140t-53.5 200 q0 135 73 225t190 131q83 29 194 29q62 0 129 -16t111 -39q17 6 108 38.5t139 47.5v-199l-67 -86q26 -52 26 -129q0 -138 -64.5 -230t-176.5 -139q-87 -37 -211 -38q-33 -24 -33 -43q0 -13 17.5 -22.5t46 -14t55.5 -6.5t57 -3.5t39 -2.5q147 -15 237.5 -97.5t90.5 -226.5 q0 -132 -64 -218.5t-171 -120.5q-84 -27 -189 -27q-30 0 -62 2q-154 9 -285 72.5t-214 160.5zM416 698q0 -151 135 -151q65 0 100 43t35 112q0 73 -33.5 115.5t-99.5 42.5q-64 0 -100.5 -45t-36.5 -117z" />
<glyph unicode="h" horiz-adv-x="1171" d="M-43 1186l139 250h344v-463q108 104 258 104q191 0 276 -106t85 -318v-653h-311v612q0 81 -37.5 127.5t-112.5 46.5q-158 0 -158 -172v-614h-313l4 1188q0 -2 -28 -2h-146z" />
<glyph unicode="i" horiz-adv-x="552" d="M-35 813l139 256h336v-1069h-309v739l10 74h-176zM125 1157v279h307v-279h-307z" />
<glyph unicode="j" horiz-adv-x="587" d="M-92 -356l49 262q18 -5 40 -9.5t47.5 -9.5t37.5 -8q28 -4 45.5 5.5t23 29.5t7.5 46.5t0 56.5v32v752h-135l-25 59l108 211h361v-1077q0 -100 -15 -170.5t-51 -124t-100 -79.5t-158 -26q-15 0 -32 1.5t-36.5 5.5t-33.5 6.5t-37.5 9t-32.5 9t-34 10t-29 8.5zM158 1157v279 h301v-279h-301z" />
<glyph unicode="k" horiz-adv-x="1087" d="M-41 1184l131 252h330v-1436h-309v1184h-152zM418 553l264 516h350l-274 -502q36 -65 145.5 -264t169.5 -303h-348z" />
<glyph unicode="l" horiz-adv-x="684" d="M129 367v1114h309v-1055q0 -88 20.5 -128t88.5 -40q44 0 94 10l18 -256q-79 -24 -182 -24q-348 0 -348 379z" />
<glyph unicode="m" horiz-adv-x="1822" d="M-12 815l135 254h297l24 -115q107 121 275 121q211 0 301 -153q53 74 122 113.5t173 39.5q190 0 272 -99.5t82 -307.5v-668h-311v612q0 95 -30 138t-111 43t-115.5 -43.5t-34.5 -133.5v-616h-311v616q0 91 -30.5 134t-104.5 43q-82 0 -117 -43.5t-35 -133.5v-616h-311 v815h-170z" />
<glyph unicode="n" horiz-adv-x="1222" d="M-23 815l136 254h297l26 -115q120 129 285 129q193 0 279.5 -102t86.5 -311v-670h-311v616q0 86 -42 131.5t-122 45.5q-71 0 -112 -46t-41 -126v-621h-309v815h-173z" />
<glyph unicode="o" horiz-adv-x="1155" d="M70 535q0 261 125.5 403.5t373.5 142.5q249 0 374.5 -141.5t125.5 -404.5t-125.5 -405t-374.5 -142q-250 0 -374.5 141.5t-124.5 405.5zM371 535q0 -138 45 -208.5t153 -70.5q107 0 152 71t45 208t-45 208.5t-152 71.5q-198 0 -198 -280z" />
<glyph unicode="p" horiz-adv-x="1230" d="M-12 817l135 252h323l27 -119q109 127 277 127q154 0 251 -79t142 -215q33 -99 33 -236q0 -267 -151 -413t-421 -146q-51 0 -102 6v-473h-309v1296h-205zM502 266q49 -10 104 -10q125 0 187.5 73t62.5 210q0 113 -47 186.5t-143 73.5q-84 0 -124 -59.5t-40 -155.5v-318z " />
<glyph unicode="q" horiz-adv-x="1216" d="M80 537q0 193 88 321.5t243 184.5q86 31 235 31q96 0 219 -13q97 -11 192 -33v-1491h-307l-2 461q-70 -8 -142 -8q-181 0 -303 78t-180 218q-43 102 -43 251zM403 537q0 -133 58 -204t174 -71q70 0 113 6v529q-47 6 -95 6q-250 0 -250 -266z" />
<glyph unicode="r" horiz-adv-x="835" d="M-27 811l131 260h342v-80q3 2 22 18.5t30 22.5q70 47 168 47l106 -6v-272q-26 3 -58 3q-16 0 -34 -1q-86 -9 -140.5 -37t-75.5 -88q-18 -50 -18 -135v-545h-307v813h-166z" />
<glyph unicode="s" horiz-adv-x="937" d="M59 51q10 37 31.5 116t34.5 126q66 -17 92 -23.5t73 -13t97 -6.5q65 0 113.5 20.5t48.5 67.5q0 10 -2 18t-7.5 14.5t-10 10.5t-14.5 8.5t-15 6.5t-18.5 6t-18.5 6l-125 34q-118 35 -186 103.5t-68 191.5q0 167 117 253.5t307 86.5q98 0 169.5 -17t188.5 -59l-123 -221 q-98 34 -143 41q-33 4 -72 4q-118 0 -118 -65q0 -9 2.5 -16.5t8 -14t10.5 -10.5t15 -8.5t15.5 -6.5t18 -6.5t16.5 -5.5l110 -33q61 -18 104 -39.5t80 -56t55.5 -87t18.5 -122.5q0 -131 -75.5 -215t-195.5 -122q-87 -27 -198 -27q-93 0 -168.5 15.5t-167.5 45.5z" />
<glyph unicode="t" horiz-adv-x="776" d="M35 813v258h127v291h307v-291h254l-143 -258h-121l10 -65v-322q0 -88 25 -129t98 -41q36 0 125 16l16 -137l12 -123q-115 -24 -208 -24q-195 0 -285 90.5t-90 288.5v446h-127z" />
<glyph unicode="u" horiz-adv-x="1118" d="M98 504v565h312v-557q0 -126 42 -186t152 -60q60 0 107 6l-4 37v760h311v-1012q-190 -67 -397 -67q-275 0 -399 119t-124 395z" />
<glyph unicode="v" horiz-adv-x="1120" d="M4 1071h356l201 -678l4 -24q36 138 108.5 385t92.5 317h352l-401 -1073h-320z" />
<glyph unicode="w" horiz-adv-x="1558" d="M8 1069h330l133 -537l12 -63q24 117 73.5 325t64.5 275h319q105 -438 143 -600l4 33q1 7 7 30l135 537h327l-309 -1069h-325l-142 582q-8 -25 -14 -51t-13 -61t-13 -61q-72 -306 -97 -409h-328l-13 45q-60 202 -160 554t-134 470z" />
<glyph unicode="x" horiz-adv-x="1038" d="M-18 0l331 551q-48 79 -96.5 161.5t-109.5 188t-99 170.5h348l164 -268l156 268l362 -2l-317 -518l328 -551h-338l-191 332l-209 -332h-329z" />
<glyph unicode="y" horiz-adv-x="1083" d="M0 1069h344l195 -799l223 799h321l-235 -784q-23 -74 -48.5 -160t-56 -188t-47.5 -160q-42 -133 -121 -199.5t-229 -66.5q-102 0 -250 47l119 221l50 -7q21 -3 34 -3q67 0 98.5 33.5t51.5 101.5l14 61l29 35h-181z" />
<glyph unicode="z" horiz-adv-x="1003" d="M68 0v231l33 38q68 77 216 241.5t215 239.5q31 36 70 75l-33 -10h-237v-113l-256 78v289h846v-242l-457 -559h469v-268h-866z" />
<glyph unicode="{" horiz-adv-x="894" d="M86 594v82q94 44 136 108.5t46 186.5l6 178q5 226 101 334t317 108l86 -4v-258h-55q-39 0 -66 -12t-41.5 -29t-21.5 -51t-8.5 -61.5t-1.5 -77.5q0 -179 -30 -293t-114 -170q87 -60 115.5 -169t28.5 -296q0 -50 1.5 -77.5t8.5 -61.5t21.5 -51t41.5 -29t66 -12h55v-263h-86 q-221 0 -317 107.5t-101 335.5l-6 180q-4 119 -47.5 185t-134.5 110z" />
<glyph unicode="|" horiz-adv-x="698" d="M201 -330v1897h299v-1897h-299z" />
<glyph unicode="}" horiz-adv-x="894" d="M98 -61h56q39 0 66 12t41.5 29t21.5 51t8.5 61.5t1.5 77.5q0 190 27.5 299t115.5 166q-88 53 -115.5 163.5t-27.5 299.5q0 50 -1.5 77.5t-8.5 61.5t-21.5 51t-41.5 29t-66 12h-56v262h86q169 0 266.5 -62t128.5 -194q18 -78 23 -186l6 -178q4 -119 48 -186t135 -109v-82 q-92 -43 -135.5 -109t-47.5 -186l-6 -180q-4 -113 -27 -193t-71 -137.5t-127 -85t-193 -27.5l-86 2v261z" />
<glyph unicode="~" horiz-adv-x="948" d="M8 854q48 68 106.5 102t146.5 31q57 -2 134 -19.5t151 -29.5t143 -4q70 7 134 61l125 -219q-48 -65 -107 -96.5t-147 -28.5q-57 2 -134.5 19t-152 28.5t-142.5 3.5q-68 -7 -130 -57z" />
<glyph unicode="&#xa2;" d="M197 528q0 168 61.5 290t171.5 192q76 48 182 65v215h215v-213q91 -13 201 -53q-6 -30 -22.5 -87.5t-22.5 -90.5q-5 -30 -14 -72q-68 21 -111.5 29t-109.5 8q-115 0 -169.5 -75t-54.5 -208q0 -134 56 -208t170 -74q46 0 85 6.5t61 13t77 25.5l65 -256q-119 -43 -211 -53 v-213h-215v217q-199 35 -307 174.5t-108 367.5z" />
<glyph unicode="&#xa3;" d="M150 565v258h139q-1 17 -5 55t-6 66t-2 57q0 152 75.5 257t200.5 157q93 39 222 39q106 0 186 -15t168 -48l-79 -275q-3 1 -30 11.5t-35 13t-32 11t-37.5 11t-34.5 7.5t-40 6.5t-39 1.5q-92 0 -142.5 -53.5t-50.5 -145.5q0 -56 17 -156h309v-258h-272q4 -30 4 -43 q0 -74 -8.5 -122.5t-32.5 -106.5h495v-293h-938v78q110 100 147 297q9 49 9 84q0 45 -8 106h-180z" />
<glyph unicode="&#xa7;" horiz-adv-x="1171" d="M115 702q0 118 114 246q-61 76 -61 174q0 70 23.5 126t64.5 94t99 63.5t125 37t145 11.5q99 0 175 -14t175 -45l-37 -107q-4 -12 -22 -65t-23 -80q-131 59 -244 59q-35 0 -60 -2t-50 -8.5t-37.5 -20t-12.5 -34.5q0 -14 6 -25t12.5 -17t22.5 -13.5t23 -10t27 -8.5l223 -78 q215 -72 215 -256q0 -85 -22 -140t-72 -112q59 -65 59 -168q0 -88 -42 -154.5t-114 -104t-157.5 -55.5t-182.5 -18q-194 0 -364 62q27 71 43 137l35 111q132 -58 260 -58q42 0 70 2t62 8t51.5 22t17.5 40q0 40 -85 65q-5 2 -8 3l-215 67q-239 82 -239 266zM401 743 q0 -39 22 -56t71 -30l204 -61q47 47 47 94q0 42 -26.5 61t-85.5 35l-184 50q-48 -42 -48 -93z" />
<glyph unicode="&#xad;" horiz-adv-x="739" d="M98 418v287h547v-287h-547z" />
<glyph unicode="&#xb0;" horiz-adv-x="772" d="M61 1151q0 106 54 182t139 113q57 24 125 24q106 0 181.5 -54t112.5 -139q25 -57 25 -126q0 -105 -54.5 -180t-140.5 -111q-58 -24 -124 -24q-105 0 -181 53t-112 137q-25 59 -25 125zM279 1151q0 -45 28 -74.5t72 -29.5t73 29.5t29 74.5q0 46 -29 77.5t-73 31.5 t-72 -31.5t-28 -77.5z" />
<glyph unicode="&#xc4;" horiz-adv-x="1349" d="M35 0l385 1208h-146l134 254h450l459 -1462h-352l-82 293l-80 -6h-285l-69 6l-84 -293h-330zM303 1548v277h299v-277h-299zM524 571h279l-135 488zM737 1548v277h297v-277h-297z" />
<glyph unicode="&#xd6;" horiz-adv-x="1402" d="M78 733q0 171 35 305.5t108 235.5t194 155t285 54t285 -54t193.5 -154.5t107.5 -235t35 -306.5q0 -534 -335 -698q-121 -58 -286 -58q-163 0 -284 55t-194.5 157t-108.5 237.5t-35 306.5zM336 1552v277h299v-277h-299zM432 733q0 -83 6 -147.5t23.5 -127.5t46.5 -103.5 t77.5 -65.5t114.5 -25q65 0 113.5 25t77.5 66t46.5 103.5t23.5 127t6 147.5q0 84 -5.5 147t-22.5 124t-46 100t-77 62.5t-114 23.5q-67 0 -116 -23.5t-78 -62.5t-46.5 -99.5t-23.5 -124t-6 -147.5zM770 1552v277h297v-277h-297z" />
<glyph unicode="&#xdc;" horiz-adv-x="1359" d="M117 621v843h336v-782q0 -45 0.5 -72.5t2.5 -67.5t6 -65t12 -56.5t19 -51t27.5 -40t38.5 -31.5t51 -18.5t64 -7.5q36 0 65 7t50.5 18.5t38.5 32t28.5 39.5t19 50.5t12 56.5t6.5 64.5t2.5 68t0.5 73.5v782h336v-843q0 -161 -28.5 -277.5t-93 -200.5t-173 -125t-264.5 -41 q-155 0 -263 41.5t-172.5 125.5t-93 200t-28.5 277zM313 1552v277h299v-277h-299zM748 1552v277h296v-277h-296z" />
<glyph unicode="&#xdf;" horiz-adv-x="1236" d="M121 0v965q0 538 479 538q199 0 315.5 -97.5t116.5 -279.5q0 -57 -17.5 -109.5t-37 -83t-53.5 -77t-48 -70.5q-18 -28 -18 -57q0 -13 2.5 -23.5t9.5 -20t12 -16t17.5 -14.5t17.5 -11t20.5 -11t18.5 -10q48 -28 80.5 -53.5t63.5 -63.5t46 -89.5t15 -117.5 q0 -209 -205 -291q-79 -31 -188 -31q-85 0 -142.5 10t-125.5 36q0 13 21 97q6 26 21 80t19 70q105 -32 176 -32q46 0 74.5 23t28.5 65q0 10 -2 18.5t-7 16.5t-9 14.5t-13 13.5t-14 11t-16.5 10.5t-15.5 9t-17 9l-15 7.5q-38 22 -58 35.5t-50 39t-45 50t-27 62.5t-12 82 q0 52 17 96t41.5 76.5t49 64.5t41.5 76t17 96q0 119 -121 119q-46 0 -76 -20t-44.5 -59.5t-20 -83t-5.5 -105.5v-965h-317z" />
<glyph unicode="&#xe4;" horiz-adv-x="1009" d="M57 346q0 93 36.5 162t102.5 108.5t147.5 58.5t180.5 19q35 0 107 -4q-1 32 -11.5 55t-26.5 37t-42.5 22t-53 10.5t-63.5 2.5q-97 0 -241 -45l-33 113q-28 104 -33 133q190 65 358 65q455 0 455 -434v-600q-230 -65 -410 -65q-109 0 -192 18t-148 59t-99 112.5t-34 172.5 zM139 1163v277h299v-277h-299zM356 356q0 -66 49.5 -90t133.5 -24q43 0 92 10v217q-28 6 -82 6q-193 0 -193 -119zM573 1163v277h297v-277h-297z" />
<glyph unicode="&#xf6;" horiz-adv-x="1155" d="M70 535q0 261 125.5 403.5t373.5 142.5q249 0 374.5 -141.5t125.5 -404.5t-125.5 -405t-374.5 -142q-250 0 -374.5 141.5t-124.5 405.5zM211 1163v277h299v-277h-299zM371 535q0 -138 45 -208.5t153 -70.5q107 0 152 71t45 208t-45 208.5t-152 71.5q-198 0 -198 -280z M645 1163v277h297v-277h-297z" />
<glyph unicode="&#xfc;" horiz-adv-x="1118" d="M98 504v565h312v-557q0 -126 42 -186t152 -60q60 0 107 6l-4 37v760h311v-1012q-190 -67 -397 -67q-275 0 -399 119t-124 395zM193 1163v277h299v-277h-299zM627 1163v277h297v-277h-297z" />
<glyph unicode="&#x2000;" horiz-adv-x="914" />
<glyph unicode="&#x2001;" horiz-adv-x="1829" />
<glyph unicode="&#x2002;" horiz-adv-x="914" />
<glyph unicode="&#x2003;" horiz-adv-x="1829" />
<glyph unicode="&#x2004;" horiz-adv-x="609" />
<glyph unicode="&#x2005;" horiz-adv-x="457" />
<glyph unicode="&#x2006;" horiz-adv-x="304" />
<glyph unicode="&#x2007;" horiz-adv-x="304" />
<glyph unicode="&#x2008;" horiz-adv-x="228" />
<glyph unicode="&#x2009;" horiz-adv-x="365" />
<glyph unicode="&#x200a;" horiz-adv-x="101" />
<glyph unicode="&#x2010;" horiz-adv-x="739" d="M98 418v287h547v-287h-547z" />
<glyph unicode="&#x2011;" horiz-adv-x="739" d="M98 418v287h547v-287h-547z" />
<glyph unicode="&#x2012;" horiz-adv-x="739" d="M98 418v287h547v-287h-547z" />
<glyph unicode="&#x2013;" horiz-adv-x="1216" d="M98 418v287h1024v-287h-1024z" />
<glyph unicode="&#x2014;" horiz-adv-x="2240" d="M98 418v287h2048v-287h-2048z" />
<glyph unicode="&#x2022;" horiz-adv-x="921" d="M135 743q0 103 54.5 177.5t138.5 112.5q58 26 123 26q102 0 177.5 -55.5t113.5 -139.5q26 -58 26 -121q0 -104 -55.5 -178.5t-140.5 -112.5q-60 -26 -121 -26q-103 0 -178.5 55t-112.5 140q-25 59 -25 122z" />
<glyph unicode="&#x202f;" horiz-adv-x="365" />
<glyph unicode="&#x205f;" horiz-adv-x="457" />
<glyph unicode="&#x25fc;" horiz-adv-x="1075" d="M0 0v1075h1075v-1075h-1075z" />
</font>
</defs>
</svg>
